<svg width="75" height="72" viewBox="0 0 75 72" fill="none" xmlns="http://www.w3.org/2000/svg">
<path d="M10.2413 27.3971C18.2011 23.2806 26.3169 17.8978 33.4336 12.3939C37.2417 9.4488 41.3399 6.92345 45.0251 3.87491C45.5445 3.44529 46.8234 1.41923 47.5947 2.08298C48.8121 3.13064 49.992 4.94997 50.7364 6.36577C52.8989 10.4785 55.8827 14.6058 58.9394 18.0694C61.3641 20.8168 63.3329 23.1371 65.1762 26.3298C66.1844 28.076 68.6879 30.459 68.5084 32.4004C68.0079 37.8128 62.9504 42.8258 59.4793 46.3669C54.3787 51.5703 49.3816 56.7995 43.3164 60.7988C39.5542 63.2796 35.3125 64.5896 31.4647 66.8111C27.9203 68.8575 28.2113 68.5829 24.8358 65.6092C21.5111 62.6803 19.4539 59.5022 17.1983 55.5955C16.0241 53.5617 13.9249 51.8055 12.292 50.1253C11.0552 48.8527 10.6058 46.68 9.93937 45.0785C9.24038 43.3989 9.30165 38.5822 7.76759 37.5789C6.26399 36.5954 4.51948 34.4336 4.94152 32.4971C5.28612 30.9159 18.4539 21.6472 7.45661 31.9939" stroke="#E5B245" stroke-opacity="0.5" stroke-linecap="round" stroke-linejoin="round"/>
<path d="M6.05118 34.9408C9.04701 36.3955 11.9623 38.4847 14.9284 39.85C15.9142 40.3038 17.5965 40.2187 18.3917 40.8396C20.5443 42.5205 26.7613 41.4997 29.4014 41.7421C32.3816 42.0157 40.5488 46.1037 41.6438 41.079C43.7023 31.6336 46.0061 22.2313 48.0563 12.8241C48.4437 11.0467 47.9205 9.29208 48.2742 7.66916C49.3509 2.7287 44.6108 5.8463 43.0081 6.77165" stroke="#E5B245" stroke-opacity="0.5" stroke-linecap="round" stroke-linejoin="round"/>
</svg>
