<svg width="64" height="49" viewBox="0 0 64 49" fill="none" xmlns="http://www.w3.org/2000/svg">
<path d="M5.54386 43.2728C6.43841 42.1357 8.15154 40.0316 5.7504 39.6595C5.20725 39.5754 4.6999 39.2562 4.16693 39.4977C2.52529 40.2418 1 41.8799 1 43.8275C1 46.9383 4.41177 47.6119 6.89019 47.5717C11.0717 47.5037 12.3439 43.4296 13.8207 40.1295C15.3126 36.7959 16.9697 33.5163 18.5176 30.2066C20.269 26.4616 23.1415 23.4782 24.9585 19.7675C25.7377 18.1763 26.7551 16.7751 27.7583 15.3222C29.3145 13.0685 30.4241 10.7949 31.5372 8.29607C32.4504 6.2459 33.463 4.37372 34.5817 2.43323C35.0341 1.64852 34.8641 0.44639 35.7292 1.28532C36.3859 1.92229 37.4308 2.34071 38.3147 2.50257C42.1792 3.21021 45.7329 3.95921 49.7126 3.64278C53.7376 3.32275 57.7604 2.74606 61.7225 1.97869C63.0694 1.71782 62.4953 2.03188 61.8602 2.84926C60.7829 4.23565 59.8631 5.70489 58.8309 7.10963C57.4849 8.94154 57.0112 11.1478 56.2148 13.2421C55.3393 15.5443 54.2974 17.7434 53.4609 20.0834C51.8444 24.6057 49.4864 28.7299 46.5686 32.5255C44.8777 34.7252 42.789 38.567 39.6228 38.4115C34.723 38.1708 38.0316 28.5256 40.3725 26.6396C41.6326 25.6243 43.0108 26.7173 43.1646 28.0802C43.3759 29.9529 42.7335 32.5192 40.9156 33.4346C38.9976 34.4004 37.5272 34.2845 39.0032 31.7936C39.8962 30.2865 40.4273 31.9452 40.7932 31.2081" stroke="#E5B245" stroke-opacity="0.5" stroke-width="1.66333" stroke-linecap="round" stroke-linejoin="round"/>
</svg>
