<?xml version="1.0" encoding="UTF-8" standalone="no"?>
<svg
   height="24"
   viewBox="0 -960 960 960"
   width="24"
   version="1.1"
   id="svg4"
   sodipodi:docname="arrow_upward_FILL1_wght400_GRAD0_opsz24.svg"
   inkscape:version="1.1.2 (b8e25be833, 2022-02-05)"
   xmlns:inkscape="http://www.inkscape.org/namespaces/inkscape"
   xmlns:sodipodi="http://sodipodi.sourceforge.net/DTD/sodipodi-0.dtd"
   xmlns="http://www.w3.org/2000/svg"
   xmlns:svg="http://www.w3.org/2000/svg">
  <defs
     id="defs8" />
  <sodipodi:namedview
     id="namedview6"
     pagecolor="#505050"
     bordercolor="#eeeeee"
     borderopacity="1"
     inkscape:pageshadow="0"
     inkscape:pageopacity="0"
     inkscape:pagecheckerboard="0"
     showgrid="false"
     inkscape:zoom="24.483572"
     inkscape:cx="16.50086"
     inkscape:cy="7.8419929"
     inkscape:window-width="1920"
     inkscape:window-height="1017"
     inkscape:window-x="-8"
     inkscape:window-y="-8"
     inkscape:window-maximized="1"
     inkscape:current-layer="svg4" />
  <path
     d="m 418.46752,-749.46171 -301.39894,301.39893 q -18.453016,18.453 -43.057003,17.68413 -24.603999,-0.76889 -43.05699,-19.22187 -16.915251,-18.45299 -17.684126,-43.05699 -0.768874,-24.604 17.684126,-43.057 L 436.9205,-941.68043 q 9.2265,-9.2265 19.99074,-13.07087 10.76426,-3.84437 23.06624,-3.84437 12.302,0 23.06624,3.84437 10.76427,3.84437 19.99076,13.07087 l 405.96592,405.96592 q 16.91524,16.91525 16.91524,42.28812 0,25.37288 -16.91524,43.82587 -18.453,18.45298 -43.82587,18.45298 -25.37287,0 -43.82586,-18.45298 l -299.8612,-299.86119 v 687.374105 q 0,26.141745 -17.68411,43.825869 -17.68413,17.68412153 -43.82588,17.68412153 -26.14174,0 -43.82586,-17.68412153 -17.6841,-17.684124 -17.6841,-43.825869 z"
     id="path2"
     style="stroke-width:1.53774;fill:#fcfcfc;fill-opacity:1" />
</svg>
