<?xml version="1.0" encoding="UTF-8" standalone="no"?>
<!-- Svg Vector Icons : http://www.onlinewebfonts.com/icon -->

<svg
   version="1.1"
   x="0px"
   y="0px"
   viewBox="0 0 256 212"
   enable-background="new 0 0 256 256"
   xml:space="preserve"
   id="svg10"
   sodipodi:docname="fav-duck.svg"
   inkscape:version="1.1.2 (b8e25be833, 2022-02-05)"
   width="256"
   height="212"
   xmlns:inkscape="http://www.inkscape.org/namespaces/inkscape"
   xmlns:sodipodi="http://sodipodi.sourceforge.net/DTD/sodipodi-0.dtd"
   xmlns="http://www.w3.org/2000/svg"
   xmlns:svg="http://www.w3.org/2000/svg"><defs
   id="defs14" /><sodipodi:namedview
   id="namedview12"
   pagecolor="#505050"
   bordercolor="#eeeeee"
   borderopacity="1"
   inkscape:pageshadow="0"
   inkscape:pageopacity="0"
   inkscape:pagecheckerboard="0"
   showgrid="false"
   inkscape:zoom="0.81152345"
   inkscape:cx="213.1793"
   inkscape:cy="396.78459"
   inkscape:window-width="1920"
   inkscape:window-height="1017"
   inkscape:window-x="-8"
   inkscape:window-y="-8"
   inkscape:window-maximized="1"
   inkscape:current-layer="g8" />
<metadata
   id="metadata2"> Svg Vector Icons : http://www.onlinewebfonts.com/icon </metadata>
<g
   id="g8"><g
     id="g6"
     style="fill:#f0ac1d;fill-opacity:1"
     transform="matrix(1.9284049,0,0,1.9284049,-219.17081,-22.12829)"><path
       id="path4"
       style="fill:#f0ac1d;fill-opacity:1"
       d="m 159.63672,11.900391 c -12.4625,0.25 -24.3875,4.699609 -31.9375,12.599609 -21.9,19.7 -14.09844,48.300391 -0.89844,62.900391 14.6,16.099999 15.3,14.900389 -7.5,29.400389 -1.2662,0.79761 -2.60881,1.4846 -3.99023,2.11133 -4.74099,2.17285 11.60502,4.08198 17.52734,0 C 157.77927,103.38528 149.39362,96.969345 144.5,91.5 133.9,79.8 129.89922,77.799219 126.19922,65.699219 c -2.4,-7.7 -3.49961,-23.598828 9.90039,-33.798828 15.4,-11.6 35.39961,-12.301172 50.59961,0.298828 15.2,12.6 14.6,22.101172 20.5,27.701172 6.9,6.5 43.80078,5.20039 4.30078,14.90039 -12.6,3.1 -11.02114,14.699219 -7.92114,25.199219 1.18311,3.88208 6.52251,16.25484 8.6995,18.41289 1.74356,2.15312 11.90724,4.93166 9.53805,0.49919 -7.19772,-14.76956 -14.28377,-27.398857 -9.51563,-31.712891 6.4,-5.8 15.19961,-8.698828 25.59961,-12.298828 13.7,-4.8 9.80039,-13.901172 -9.59961,-18.701172 -18.8,-4.7 -14.2,-13.799219 -33.5,-31.699219 -9.7,-8.9 -22.70156,-12.849609 -35.16406,-12.599609 z m 9.96289,37.699218 c -4.6,0 -8.40039,3.800391 -8.40039,8.400391 0,4.6 3.80039,8.400391 8.40039,8.400391 C 174.19961,66.400391 178,62.6 178,58 c -0.1,-4.6 -3.80039,-8.400391 -8.40039,-8.400391 z"
       sodipodi:nodetypes="sccccccccscccccccccsssscss" /></g></g>
</svg>
