<svg width="123" height="123" viewBox="0 0 123 123" fill="none" xmlns="http://www.w3.org/2000/svg">
<g clip-path="url(#clip0_707_64)">
<mask id="mask0_707_64" style="mask-type:luminance" maskUnits="userSpaceOnUse" x="0" y="0" width="123" height="123">
<path d="M0 0.151123H122.849V123H0V0.151123Z" fill="white"/>
</mask>
<g mask="url(#mask0_707_64)">
<path d="M120.535 56.1054L66.896 2.47069C66.1612 1.73544 65.2887 1.15219 64.3285 0.754248C63.3682 0.35631 62.3389 0.151489 61.2995 0.151489C60.26 0.151489 59.2307 0.35631 58.2705 0.754248C57.3102 1.15219 56.4378 1.73544 55.703 2.47069L44.5688 13.6102L58.6951 27.7365C60.3559 27.1725 62.1414 27.0844 63.8496 27.4823C65.5578 27.8802 67.1206 28.7481 68.3613 29.9879C69.6088 31.2367 70.4797 32.8115 70.8743 34.532C71.2689 36.2525 71.1713 38.0493 70.5927 39.717L84.2122 53.3325C85.8803 52.7532 87.6779 52.6556 89.3989 53.0509C91.1199 53.4463 92.6946 54.3186 93.9426 55.5679C94.8168 56.4419 95.5102 57.4796 95.9834 58.6217C96.4565 59.7637 96.7 60.9878 96.7 62.224C96.7 63.4601 96.4565 64.6842 95.9834 65.8262C95.5102 66.9683 94.8168 68.006 93.9426 68.88C92.1753 70.6455 89.7793 71.6372 87.2812 71.6372C84.7831 71.6372 82.3872 70.6455 80.6198 68.88C79.3069 67.5649 78.4124 65.8909 78.0489 64.0685C77.6854 62.2462 77.8691 60.3571 78.577 58.6389L65.8759 45.9418V79.3617C67.2165 80.024 68.38 80.996 69.2701 82.1975C70.1602 83.3989 70.7512 84.7951 70.9943 86.2705C71.2374 87.7458 71.1254 89.2578 70.6678 90.6813C70.2101 92.1048 69.4199 93.3987 68.3626 94.456C67.4886 95.3302 66.4509 96.0236 65.3089 96.4967C64.1668 96.9699 62.9428 97.2134 61.7066 97.2134C60.4704 97.2134 59.2463 96.9699 58.1043 96.4967C56.9622 96.0236 55.9246 95.3302 55.0505 94.456C54.1762 93.5819 53.4825 92.5442 53.0093 91.402C52.5361 90.2598 52.2925 89.0356 52.2925 87.7993C52.2925 86.5629 52.5361 85.3387 53.0093 84.1965C53.4825 83.0544 54.1762 82.0166 55.0505 81.1426C55.9313 80.26 56.9783 79.5607 58.1309 79.085V45.3576C56.983 44.8848 55.9398 44.1898 55.0613 43.3126C54.1828 42.4355 53.4863 41.3934 53.0117 40.2462C52.5371 39.099 52.2939 37.8694 52.2959 36.628C52.298 35.3865 52.5453 34.1577 53.0237 33.0121L39.0953 19.081L2.31295 55.854C0.830742 57.3391 -0.00170898 59.3516 -0.00170898 61.4499C-0.00170898 63.5481 0.830742 65.5606 2.31295 67.0457L55.9543 120.687C57.4394 122.169 59.4516 123.001 61.5495 123.001C63.6474 123.001 65.6596 122.169 67.1447 120.687L120.535 67.297C122.017 65.8119 122.849 63.7994 122.849 61.7012C122.849 59.603 122.017 57.5905 120.535 56.1054Z" fill="#F0AC1D"/>
</g>
</g>
<defs>
<clipPath id="clip0_707_64">
<rect width="123" height="123" fill="white"/>
</clipPath>
</defs>
</svg>
