<svg width="110" height="110" viewBox="0 0 110 110" fill="none" xmlns="http://www.w3.org/2000/svg">
<path d="M0 0V110H110V0H0ZM83.7222 49.9174C90.2943 49.9174 95.0189 52.2044 98.4237 58.1933L90.3745 63.3619C88.6023 60.1841 86.6905 58.932 83.7222 58.932C80.6946 58.932 78.7757 60.8528 78.7757 63.3619C78.7757 66.4628 80.6964 67.7181 85.1313 69.6387L87.7152 70.7457C96.4978 74.5118 101.457 78.3514 101.457 86.9838C101.457 96.2901 94.1462 101.389 84.3282 101.389C74.7285 101.389 68.5265 96.8141 65.4919 90.8182L73.8919 85.9378C76.1076 89.5556 78.9904 92.215 84.0888 92.215C88.3718 92.215 91.1081 90.0742 91.1081 87.1164C91.1081 83.572 88.2967 82.3168 83.5824 80.2547L80.9985 79.1457C73.5394 75.9679 68.5843 71.9871 68.5843 63.5712C68.5843 55.8189 74.491 49.9174 83.7222 49.9174ZM49.5682 50.5074H59.9046V85.7946C59.9046 96.4978 53.6293 101.369 44.4696 101.369C36.1934 101.369 31.4008 97.0862 28.9633 91.9276L37.3774 86.8337C39.0012 89.7147 40.4782 92.1502 44.0297 92.1502C47.4257 92.1502 49.5682 90.8216 49.5682 85.6551V50.5074Z" fill="#F0AC1D"/>
</svg>
