<svg width="106" height="120" viewBox="0 0 106 120" fill="none" xmlns="http://www.w3.org/2000/svg">
<g clip-path="url(#clip0_709_78)">
<path d="M42.2712 0.323853L57.1315 44.0651C57.8052 44.1988 58.4625 44.3786 59.1009 44.5982L73.8739 14.8021L88.6042 44.7759C89.2161 44.5415 89.8456 44.3466 90.4919 44.192L105.403 0.323853H42.2712ZM54.1514 49.7373C49.0487 49.7373 44.8968 53.8783 44.8968 58.9686C44.8968 64.0589 49.0487 68.2007 54.1514 68.2007C59.2546 68.2007 63.406 64.0589 63.406 58.9686C63.406 53.8783 59.2546 49.7373 54.1514 49.7373ZM94.0427 49.7373C88.94 49.7373 84.7881 53.8783 84.7881 58.9686C84.7881 64.0589 88.94 68.2007 94.0427 68.2007C99.1463 68.2007 103.298 64.0589 103.298 58.9686C103.298 53.8783 99.1463 49.7373 94.0427 49.7373ZM14.1084 49.8253C9.00565 49.8253 4.85374 53.9662 4.85374 59.0565C4.85374 64.1468 9.00565 68.2878 14.1084 68.2878C19.212 68.2878 23.3639 64.1468 23.3639 59.0565C23.3639 53.9662 19.212 49.8253 14.1084 49.8253ZM69.3834 59.0547C69.3362 67.3954 62.5236 74.1667 54.1514 74.1667C53.3762 74.1667 52.6148 74.1072 51.8703 73.9953C49.3882 77.903 46.3692 81.5604 42.8565 84.8656C37.4225 89.9791 31.2966 93.7695 24.6481 96.1311L23.4293 96.5635L22.2787 95.9743C13.869 91.6647 9.86212 82.5452 12.4098 74.1576C11.0338 74.0044 9.71327 73.6665 8.47179 73.1713C8.05905 74.035 7.6381 74.9046 7.20489 75.7921C4.70192 80.9204 2.11379 86.2233 1.15662 91.981C0.123609 98.1959 -0.285837 109.537 8.58085 115.667C20.6852 124.035 33.5229 117.675 48.3876 110.31C55.8155 106.63 63.4973 102.824 71.4274 100.874C74.4263 100.136 77.496 99.6947 80.4648 99.2677C86.0067 98.4708 91.2415 97.7173 95.6095 95.1938C100.295 92.4868 103.499 87.9666 104.4 82.7923C105.082 78.8736 104.443 74.9389 102.731 71.4425C100.265 73.1571 97.2706 74.1667 94.0427 74.1667C85.7168 74.1667 78.9392 67.4687 78.818 59.1916L69.3834 59.0547Z" fill="#F0AC1D"/>
</g>
<defs>
<clipPath id="clip0_709_78">
<rect width="105" height="120" fill="white" transform="translate(0.5)"/>
</clipPath>
</defs>
</svg>
