<svg width="122" height="122" viewBox="0 0 122 122" fill="none" xmlns="http://www.w3.org/2000/svg">
<g clip-path="url(#clip0_563_532)">
<path d="M57.0049 0.0328306C56.7425 0.0566785 55.9077 0.140146 55.1564 0.199766C37.8283 1.7618 21.5975 11.1102 11.3175 25.4786C5.59316 33.4676 1.93196 42.5298 0.548583 52.1286C0.0596285 55.4792 0 56.4689 0 61.0119C0 65.555 0.0596285 66.5447 0.548583 69.8953C3.86393 92.8012 20.1664 112.046 42.2766 119.177C46.236 120.453 50.41 121.323 55.1564 121.848C57.0049 122.051 64.9951 122.051 66.8436 121.848C75.0366 120.942 81.9773 118.915 88.8227 115.421C89.8721 114.884 90.0749 114.741 89.9318 114.622C89.8364 114.551 85.3642 108.553 79.9977 101.303L70.2424 88.127L58.0186 70.0384C51.2925 60.0938 45.7589 51.9617 45.7112 51.9617C45.6635 51.9497 45.6158 59.9865 45.592 69.7999C45.5562 86.9823 45.5443 87.6739 45.3296 88.0793C45.0196 88.6636 44.781 88.9021 44.2802 89.1644C43.8985 89.3552 43.5646 89.391 41.7638 89.391H39.7007L39.1521 89.0452C38.7943 88.8186 38.532 88.5205 38.3531 88.1747L38.1026 87.6381L38.1265 63.7306L38.1623 39.8111L38.532 39.3461C38.7228 39.0957 39.1283 38.7738 39.4145 38.6188C39.9034 38.3803 40.0942 38.3564 42.1574 38.3564C44.5902 38.3564 44.9957 38.4518 45.6278 39.1434C45.8066 39.3342 52.4254 49.3026 60.3441 61.31C68.2628 73.3175 79.0913 89.7129 84.4102 97.7616L94.07 112.392L94.5589 112.07C98.888 109.256 103.467 105.25 107.093 101.076C114.809 92.2169 119.782 81.4138 121.451 69.8953C121.94 66.5447 122 65.555 122 61.0119C122 56.4689 121.94 55.4792 121.451 52.1286C118.136 29.2227 101.834 9.97741 79.7234 2.84688C75.8237 1.58294 71.6735 0.712496 67.0225 0.187842C65.8776 0.0686025 57.9947 -0.062561 57.0049 0.0328306ZM81.9773 36.9256C82.5498 37.2117 83.0149 37.7602 83.1818 38.3326C83.2772 38.6426 83.3011 45.2723 83.2772 60.213L83.2414 81.6523L79.461 75.8573L75.6686 70.0622V54.4776C75.6686 44.4019 75.7163 38.738 75.7879 38.4637C75.9787 37.796 76.3961 37.2713 76.9685 36.9613C77.4575 36.7109 77.6364 36.6871 79.5087 36.6871C81.2737 36.6871 81.5838 36.7109 81.9773 36.9256Z" fill="#F0AC1D"/>
</g>
<defs>
<clipPath id="clip0_563_532">
<rect width="122" height="122" fill="white"/>
</clipPath>
</defs>
</svg>
