<svg width="126" height="111" viewBox="0 0 126 111" fill="none" xmlns="http://www.w3.org/2000/svg">
<g clip-path="url(#clip0_563_466)">
<path d="M103.597 35.9405C102.256 35.4855 100.903 35.0639 99.541 34.6762C99.7699 33.7512 99.9805 32.8374 100.168 31.9397C103.238 17.1976 101.231 5.3211 94.375 1.41078C87.8019 -2.3379 77.0521 1.57095 66.1954 10.9169C65.1255 11.8396 64.0793 12.7889 63.0578 13.7639C62.3739 13.1156 61.678 12.4798 60.9704 11.857C49.5921 1.86403 38.1872 -2.34764 31.3389 1.57388C24.7717 5.33424 22.8271 16.499 25.5912 30.4704C25.8662 31.8541 26.1767 33.2307 26.5224 34.5988C24.908 35.0525 23.3502 35.5355 21.8594 36.0496C8.51923 40.6503 0 47.8599 0 55.3383C0 63.062 9.14578 70.8092 23.0402 75.5067C24.1666 75.886 25.3024 76.2374 26.4466 76.5607C26.075 78.0342 25.7451 79.5177 25.4573 81.0095C22.8221 94.7384 24.88 105.639 31.4295 109.376C38.1941 113.235 49.5478 109.269 60.6028 99.7096C61.4992 98.9324 62.3759 98.1333 63.232 97.3128C64.3382 98.3686 65.474 99.3936 66.6379 100.387C77.3469 109.501 87.923 113.182 94.4661 109.435C101.224 105.565 103.421 93.8548 100.569 79.6074C100.345 78.4912 100.093 77.3805 99.8137 76.2764C100.611 76.0427 101.394 75.8022 102.156 75.552C116.601 70.8184 125.999 63.1652 125.999 55.3383C125.999 47.8326 117.205 40.5743 103.597 35.9405ZM100.464 70.4986C99.7748 70.724 99.068 70.9416 98.3474 71.1534C96.7528 66.1598 94.6009 60.8503 91.9672 55.3641C94.4803 50.0088 96.5495 44.767 98.0994 39.8061C99.3884 40.1751 100.639 40.5641 101.845 40.9745C113.505 44.9452 120.617 50.815 120.617 55.3383C120.617 60.1561 112.936 66.4105 100.464 70.4986ZM95.289 80.6414C96.55 86.9412 96.7296 92.6372 95.8944 97.0903C95.1443 101.092 93.6353 103.759 91.7689 104.828C87.7984 107.101 79.3068 104.146 70.1487 96.3508C69.066 95.4275 68.0096 94.4745 66.9805 93.4931C70.5311 89.6524 74.0793 85.1876 77.5423 80.2286C83.6336 79.694 89.3882 78.8197 94.6068 77.6264C94.8582 78.6259 95.0857 79.6312 95.289 80.6414ZM42.9559 104.435C39.0765 105.79 35.9866 105.829 34.1188 104.763C30.1444 102.496 28.4921 93.7433 30.7458 82.0026C31.0137 80.6153 31.3205 79.2355 31.6657 77.865C36.8268 78.9944 42.5396 79.8065 48.6451 80.2962C52.1318 85.1486 55.7823 89.6086 59.4614 93.514C58.6795 94.2623 57.8791 94.9915 57.061 95.7009C52.1721 99.9277 47.2734 102.927 42.9559 104.435ZM24.7815 70.4688C18.6376 68.3915 13.5636 65.692 10.0859 62.7461C6.96048 60.0991 5.38303 57.4706 5.38303 55.3383C5.38303 50.7999 12.2229 45.0114 23.6313 41.0772C25.0158 40.6001 26.4648 40.1498 27.9684 39.7272C29.5454 44.8001 31.6135 50.1042 34.1094 55.4678C31.5811 60.9107 29.4834 66.2995 27.8911 71.4323C26.8468 71.1364 25.8099 70.8151 24.7815 70.4688ZM30.8738 29.4475C28.5059 17.4775 30.0784 8.44809 34.0361 6.18184C38.2512 3.76807 47.5722 7.20956 57.3967 15.8383C58.0373 16.4023 58.6676 16.9777 59.2871 17.5642C55.6263 21.4526 52.0092 25.8795 48.5536 30.7031C42.6277 31.2464 36.9552 32.1188 31.74 33.2877C31.4187 32.0152 31.1299 30.7344 30.8738 29.4475ZM85.2243 42.7227C83.9925 40.6181 82.715 38.5399 81.3926 36.4897C85.4128 36.9926 89.2647 37.6601 92.8817 38.476C91.796 41.919 90.4425 45.5182 88.8493 49.2085C87.6847 47.0229 86.4762 44.8606 85.2243 42.7227ZM63.0602 21.3694C65.5428 24.03 68.0293 27.0002 70.475 30.2231C65.5138 29.9913 60.5443 29.9903 55.583 30.2202C58.0311 27.027 60.5388 24.0606 63.0602 21.3694ZM40.7539 42.7593C39.5177 44.8799 38.3317 47.0287 37.1969 49.2041C35.6298 45.527 34.2886 41.9112 33.1935 38.4195C36.7884 37.624 40.622 36.9736 44.6166 36.48C43.2795 38.5427 41.9916 40.6367 40.7539 42.7593ZM44.7313 74.5754C40.6043 74.1197 36.7131 73.5029 33.1191 72.7288C34.2315 69.1748 35.6022 65.4821 37.2033 61.7261C38.3426 63.9031 39.5335 66.0533 40.7751 68.1749C42.0518 70.3559 43.3738 72.4922 44.7313 74.5754ZM63.2089 89.6821C60.6574 86.9597 58.1128 83.9476 55.6277 80.7081C58.0404 80.8016 60.4999 80.8493 62.9997 80.8493C65.5679 80.8493 68.1066 80.7923 70.6054 80.6823C68.1519 83.9802 65.6747 86.9967 63.2089 89.6821ZM88.9 61.5343C90.5842 65.3317 92.0037 69.0049 93.1308 72.498C89.4778 73.3227 85.5334 73.9868 81.3774 74.4799C82.7091 72.3916 83.9988 70.2774 85.2455 68.1383C86.513 65.9641 87.7315 63.7622 88.9 61.5343ZM80.583 65.4782C78.6744 68.7578 76.6585 71.9751 74.5385 75.125C70.6982 75.394 66.8495 75.5277 62.9997 75.5257C59.0785 75.5257 55.2645 75.4049 51.5918 75.1693C49.4165 72.0267 47.3621 68.8037 45.4331 65.5074C43.5132 62.2286 41.7204 58.8788 40.0575 55.4653C41.7161 52.0511 43.504 48.6997 45.4174 45.4184L45.4169 45.4189C47.3295 42.1367 49.3675 38.9276 51.5264 35.7984C55.2734 35.518 59.1159 35.3719 62.9992 35.3719C66.9003 35.3719 70.7482 35.5194 74.4942 35.8018C76.6313 38.9263 78.6562 42.1244 80.5653 45.3902C82.485 48.6643 84.2966 51.9993 85.997 55.3899C84.314 58.8152 82.5082 62.1801 80.583 65.4782ZM91.6867 6.02313C95.9057 8.43007 97.5467 18.1362 94.8957 30.8647C94.7264 31.6768 94.5365 32.5039 94.3297 33.3428C89.1017 32.149 83.4254 31.2615 77.4822 30.7099C74.0202 25.8332 70.4327 21.3995 66.8314 17.5613C67.7752 16.6614 68.7415 15.7848 69.7293 14.9323C79.0316 6.92524 87.7256 3.76369 91.6867 6.02313ZM62.9997 44.2091C69.2135 44.2091 74.251 49.1919 74.251 55.3383C74.251 61.4847 69.2135 66.4675 62.9997 66.4675C56.7859 66.4675 51.7483 61.4847 51.7483 55.3383C51.7483 49.1919 56.7859 44.2091 62.9997 44.2091Z" fill="#F0AC1D"/>
</g>
<defs>
<clipPath id="clip0_563_466">
<rect width="126" height="111" fill="white"/>
</clipPath>
</defs>
</svg>
