<svg width="104" height="98" viewBox="0 0 104 98" fill="none" xmlns="http://www.w3.org/2000/svg">
<path d="M71.8921 68.0988C75.6978 67.7114 78.5849 64.486 78.4536 60.615C78.3227 56.7447 75.0416 53.6482 71.1046 53.6482H70.8423C66.7737 53.7771 63.6246 57.1318 63.7559 61.1313C63.8872 63.0666 64.6744 64.7438 65.8555 65.905C61.3937 74.5496 54.5695 80.8715 44.3337 86.1615C37.3782 89.774 30.1609 91.0644 22.9433 90.1614C17.0378 89.3872 12.4447 86.807 9.55722 82.5487C5.35807 76.2268 4.96451 69.3885 8.50782 62.5507C11.0013 57.6478 14.9378 54.035 17.4314 52.2285C16.9065 50.5514 16.1189 47.7131 15.7254 45.6488C-3.30321 59.196 -1.33457 77.5172 4.43964 86.1615C8.77007 92.6126 17.5627 96.6125 27.2737 96.6125C29.8982 96.6125 32.5228 96.354 35.1477 95.7095C51.9453 92.4837 64.6748 82.6779 71.8921 68.0988ZM94.989 52.1C85.0155 40.617 70.3174 34.2951 53.5197 34.2951H51.4204C50.2393 31.9727 47.7457 30.4241 44.9899 30.4241H44.7273C40.6593 30.5534 37.5102 33.9077 37.6412 37.9076C37.7725 41.7782 41.0529 44.8747 44.9899 44.8747H45.2522C48.1393 44.7458 50.6329 42.9394 51.6827 40.4878H54.0446C64.0185 40.4878 73.4668 43.3261 81.9973 48.8742C88.5585 53.1319 93.283 58.68 95.9075 65.389C98.1385 70.8079 98.0072 76.0979 95.6449 80.6137C91.9706 87.4516 85.803 91.1933 77.6664 91.1933C72.417 91.1933 67.4306 89.6451 64.8057 88.4839C63.3623 89.774 60.7374 91.8382 58.9001 93.129C64.5434 95.7091 70.3174 97.1285 75.8291 97.1285C88.4272 97.1285 97.7449 90.2899 101.288 83.452C105.094 75.9686 104.831 63.0666 94.989 52.1ZM28.3235 70.2916C28.4549 74.1622 31.7356 77.2584 35.6726 77.2584H35.9352C40.0031 77.1298 43.1526 73.7751 43.0212 69.7756C42.8903 65.9046 39.6092 62.8085 35.6726 62.8085H35.4103C35.1477 62.8085 34.7537 62.8085 34.4918 62.937C29.1111 54.1639 26.8802 44.6166 27.6677 34.2948C28.1922 26.5534 30.8171 19.8441 35.4103 14.2961C39.2156 9.52225 46.5646 7.19991 51.5517 7.07121C65.4619 6.81299 71.3669 23.8437 71.7608 30.682C73.4668 31.069 76.354 31.9724 78.3227 32.6176C76.7476 11.7163 63.6246 0.878418 51.0268 0.878418C39.2156 0.878418 28.3235 9.26485 23.9927 21.6509C17.9563 38.1654 21.8931 54.035 29.242 66.5502C28.5862 67.4532 28.1922 68.8722 28.3235 70.2916Z" fill="#F0AC1D"/>
</svg>
