<svg width="92" height="110" viewBox="0 0 92 110" fill="none" xmlns="http://www.w3.org/2000/svg">
<g clip-path="url(#clip0_703_60)">
<path fill-rule="evenodd" clip-rule="evenodd" d="M90.9712 13.9179C87.7256 1.19055 66.6259 -2.99205 46.6572 4.10221C34.7736 8.3243 21.9063 14.9518 12.6543 23.6042C1.65388 33.8938 -0.0981476 42.8478 0.623485 46.5888C3.17254 59.79 21.2636 68.4209 28.6989 74.8258V74.8653C26.5053 75.946 10.4571 84.067 6.70171 92.3712C2.73812 101.131 7.33359 107.418 10.3745 108.265C19.7988 110.886 29.4673 106.172 34.6659 98.4207C39.6814 90.9387 39.2649 81.281 37.0857 76.4737C40.0907 75.6803 43.5983 75.3249 48.0502 75.8454C60.6195 77.3138 63.086 85.162 62.6121 88.4471C62.1418 91.7321 59.503 93.538 58.6234 94.0837C57.7402 94.6294 57.4745 94.8197 57.5463 95.2218C57.654 95.8106 58.0597 95.7891 58.8136 95.6634C59.8476 95.4875 65.4125 92.9923 65.653 86.9284C65.9546 79.231 58.5803 70.6217 45.5191 70.8443C40.141 70.9376 36.759 71.4474 34.314 72.3593C34.1345 72.1547 33.9478 71.9501 33.7611 71.7454C25.6868 63.1289 10.7587 57.0363 11.3905 45.4543C11.6203 41.243 13.0851 30.1564 40.0727 16.7074C62.1813 5.68909 79.881 8.72282 82.9399 15.4401C87.3092 25.0403 73.4797 42.8801 50.5203 45.4543C41.7709 46.4344 37.1647 43.0452 36.0194 41.7815C34.8131 40.4531 34.6336 40.3921 34.1848 40.6434C33.4524 41.0491 33.9155 42.2231 34.1848 42.9232C34.8705 44.7075 37.6852 47.8705 42.4782 49.4466C46.6967 50.8324 56.9683 51.59 69.3904 46.7862C83.2989 41.4009 94.1629 26.4297 90.9712 13.9179ZM31.7865 78.7714C32.8277 82.6273 32.7128 86.2247 31.6393 89.481C31.5208 89.8437 31.388 90.1991 31.2444 90.5545C31.1008 90.9064 30.9464 91.2582 30.7813 91.6029C29.9519 93.3262 28.8354 94.9382 27.4711 96.4281C23.3064 100.97 17.4903 102.686 14.9987 101.239C12.306 99.6772 13.6559 93.2759 18.4812 88.1706C23.6726 82.6812 31.1439 79.152 31.1439 79.152L31.1331 79.1305C31.3485 79.012 31.5675 78.8935 31.7865 78.7714Z" fill="#F0AC1D"/>
</g>
<defs>
<clipPath id="clip0_703_60">
<rect width="91.6667" height="110" fill="white" transform="translate(0.166626)"/>
</clipPath>
</defs>
</svg>
