<svg width="197" height="118" viewBox="0 0 197 118" fill="none" xmlns="http://www.w3.org/2000/svg">
<mask id="mask0_563_540" style="mask-type:luminance" maskUnits="userSpaceOnUse" x="0" y="0" width="197" height="118">
<path d="M0 0H196.8V117.818H0V0Z" fill="white"/>
</mask>
<g mask="url(#mask0_563_540)">
<path fill-rule="evenodd" clip-rule="evenodd" d="M98.4 0C72.16 0 55.76 13.0909 49.2 39.2727C59.04 26.1818 70.52 21.2727 83.64 24.5455C91.1257 26.4109 96.4757 31.8327 102.398 37.8291C112.045 47.6 123.211 58.9091 147.6 58.9091C173.84 58.9091 190.24 45.8182 196.8 19.6364C186.96 32.7273 175.48 37.6364 162.36 34.3636C154.874 32.4982 149.524 27.0764 143.602 21.08C133.955 11.3091 122.789 0 98.4 0ZM49.2 58.9091C22.96 58.9091 6.56 72 0 98.1818C9.84 85.0909 21.32 80.1818 34.44 83.4546C41.9257 85.3236 47.2757 90.7418 53.198 96.7382C62.8448 106.509 74.0114 117.818 98.4 117.818C124.64 117.818 141.04 104.727 147.6 78.5455C137.76 91.6364 126.28 96.5455 113.16 93.2727C105.674 91.4073 100.324 85.9855 94.402 79.9891C84.7552 70.2182 73.5886 58.9091 49.2 58.9091Z" fill="#F0AC1D"/>
</g>
</svg>
