<svg width="120" height="119" viewBox="0 0 120 119" fill="none" xmlns="http://www.w3.org/2000/svg">
<g clip-path="url(#clip0_569_545)">
<path fill-rule="evenodd" clip-rule="evenodd" d="M12.1211 0C5.68301 0 0.5 4.72631 0.5 10.597V108.403C0.5 114.274 5.68301 119 12.1211 119H107.879C114.317 119 119.5 114.274 119.5 108.403V10.597C119.5 4.72631 114.317 0 107.879 0H12.1211ZM94.4243 55.3164C97.1402 55.3164 99.5472 55.4799 101.645 55.8071C103.742 56.1344 105.677 56.6374 107.447 57.3161V68.1881C106.574 67.582 105.622 67.0486 104.591 66.588C103.561 66.1275 102.5 65.7457 101.408 65.4426C100.317 65.1398 99.2317 64.9154 98.1526 64.7699C97.0735 64.6246 96.0493 64.552 95.0794 64.552C93.7455 64.552 92.5329 64.6793 91.4414 64.9338C90.3502 65.1883 89.4292 65.5456 88.6773 66.006C87.9257 66.4667 87.3433 67.0182 86.931 67.6606C86.5187 68.3031 86.3127 69.0244 86.3127 69.8242C86.3127 70.6969 86.5434 71.4783 87.0041 72.1693C87.4647 72.86 88.1195 73.5144 88.9683 74.1326C89.8171 74.7506 90.8476 75.3566 92.0602 75.9507C93.2727 76.5445 94.6425 77.1566 96.1702 77.7869C98.2557 78.6594 100.129 79.5865 101.791 80.5682C103.452 81.55 104.876 82.6594 106.064 83.8957C107.253 85.1319 108.162 86.5438 108.793 88.1315C109.423 89.7191 109.738 91.5675 109.738 93.6765C109.738 96.5852 109.186 99.0272 108.083 101.003C106.98 102.978 105.482 104.578 103.591 105.802C101.699 107.027 99.4986 107.905 96.9887 108.438C94.4787 108.972 91.8298 109.238 89.0409 109.238C86.1794 109.238 83.4575 108.996 80.8748 108.511C78.2922 108.026 76.0551 107.299 74.1637 106.329V94.6942C76.2734 96.4639 78.5648 97.7912 81.0383 98.6758C83.5119 99.5606 86.0096 100.003 88.5316 100.003C90.011 100.003 91.3021 99.8696 92.4056 99.6028C93.5089 99.3362 94.4306 98.9665 95.1702 98.4938C95.9097 98.021 96.4615 97.4638 96.8252 96.8214C97.189 96.179 97.3709 95.4819 97.3709 94.7305C97.3709 93.7123 97.0799 92.8034 96.498 92.0037C95.9157 91.2037 95.1216 90.4643 94.1152 89.7857C93.109 89.107 91.9144 88.4527 90.5322 87.8223C89.1499 87.192 87.6585 86.5498 86.058 85.8953C81.9839 84.1984 78.9468 82.1257 76.9464 79.6776C74.9457 77.2292 73.9453 74.2719 73.9453 70.8056C73.9453 68.0907 74.491 65.7578 75.5823 63.8066C76.6735 61.8552 78.1589 60.2495 80.0382 58.9889C81.9178 57.7284 84.0939 56.8009 86.5674 56.2071C89.0408 55.6132 91.6597 55.3164 94.4243 55.3164ZM27.9258 56.4785H69.5293V66.0269H54.603V108.541H42.779V66.0269H27.9258V56.4785Z" fill="#F0AC1D"/>
</g>
<defs>
<clipPath id="clip0_569_545">
<rect width="119" height="119" fill="white" transform="translate(0.5)"/>
</clipPath>
</defs>
</svg>
