<svg width="120" height="109" viewBox="0 0 120 109" fill="none" xmlns="http://www.w3.org/2000/svg">
<path d="M89.7439 32.849L61.352 73.8999C61.051 74.3351 60.6157 74.6612 60.1121 74.8285C59.6085 74.9959 59.0641 74.9943 58.5615 74.8262C58.0589 74.6573 57.6257 74.3296 57.3273 73.8936C57.029 73.4568 56.8818 72.9351 56.9084 72.4079L58.0446 49.7436L39.7005 45.8532C39.3084 45.7702 38.9432 45.5921 38.637 45.3348C38.3308 45.0775 38.0932 44.749 37.9452 44.3782C37.7971 44.0075 37.7433 43.606 37.7884 43.2094C37.8335 42.8128 37.9761 42.4331 38.2036 42.1042L66.5958 1.05325C66.8969 0.617762 67.3322 0.291794 67.8358 0.124686C68.3395 -0.0424217 68.8839 -0.0415578 69.3865 0.127279C69.8891 0.296037 70.3225 0.623496 70.6208 1.06C70.9191 1.49643 71.0662 2.01803 71.0396 2.54567L69.9033 25.2102L88.2472 29.1003C88.6393 29.1833 89.0046 29.3615 89.311 29.6187C89.6174 29.876 89.8547 30.2045 90.0024 30.5753C90.1509 30.946 90.2043 31.3475 90.1595 31.7441C90.1147 32.1408 89.9717 32.5201 89.7439 32.849Z" fill="#F0AC1D"/>
<path d="M60.0113 108.341C59.2561 108.342 58.5083 108.194 57.8106 107.905C57.113 107.616 56.4793 107.192 55.946 106.657L29.1189 79.8322C28.0457 78.7535 27.4441 77.293 27.446 75.7712C27.4481 74.2493 28.0535 72.7896 29.1297 71.714C30.2058 70.6377 31.6648 70.032 33.1867 70.0296C34.7087 70.028 36.1694 70.6291 37.2485 71.7023L60.0113 94.4626L109.6 44.8759C110.681 43.8123 112.139 43.2189 113.655 43.2251C115.172 43.2313 116.625 43.8365 117.697 44.9088C118.769 45.9812 119.375 47.4338 119.381 48.9503C119.386 50.4669 118.793 51.9244 117.73 53.0054L64.0756 106.657C63.5424 107.192 62.9089 107.616 62.2114 107.905C61.514 108.194 60.7662 108.342 60.0113 108.341Z" fill="#F0AC1D"/>
<path d="M59.9882 108.341C60.7434 108.342 61.4913 108.194 62.1889 107.905C62.8866 107.616 63.5202 107.192 64.0535 106.657L90.8807 79.8322C91.9539 78.7535 92.5557 77.293 92.5533 75.7712C92.5518 74.2493 91.946 72.7896 90.8697 71.714C89.7934 70.6377 88.3344 70.032 86.8126 70.0296C85.2908 70.028 83.8303 70.6291 82.7508 71.7023L59.9882 94.4626L10.3992 44.8759C9.31819 43.8123 7.86065 43.2189 6.34418 43.2251C4.82764 43.2313 3.37497 43.8365 2.30264 44.9088C1.23029 45.9812 0.625119 47.4338 0.618944 48.9503C0.612769 50.4669 1.20609 51.9244 2.26968 53.0054L55.9239 106.657C56.4571 107.192 57.0907 107.616 57.7881 107.905C58.4856 108.194 59.2333 108.342 59.9882 108.341Z" fill="#F0AC1D" fill-opacity="0.5"/>
</svg>
